<svg width="192" height="286" viewBox="0 0 192 286" fill="none" xmlns="http://www.w3.org/2000/svg">
<path d="M148.927 57.9608C142.311 72.3282 134.131 85.2731 124.387 96.7954C114.644 108.318 104.642 119.558 94.381 130.516C76.148 149.816 64.8747 168.19 60.561 185.639C56.5303 202.829 61.3669 218.902 75.0706 233.86C81.2761 240.633 87.9793 245.393 95.1802 248.14C102.406 250.345 109.692 251.196 117.039 250.694C124.411 249.65 131.703 247.382 138.914 243.89C146.149 239.857 152.738 235.118 158.681 229.673C168.868 220.34 177.609 209.996 184.903 198.641C192.198 187.286 197.197 175.698 199.9 163.877C202.628 151.515 202.636 139.309 199.924 127.259C196.953 114.926 190.426 103.257 180.342 92.2502L148.927 57.9608ZM94.4198 84.5392C98.7134 79.5673 103.597 73.5354 109.072 66.4435C114.829 59.0923 118.925 52.4845 121.36 46.6201C123.795 40.7556 123.368 35.1768 120.08 29.8835C116.816 24.0488 113.375 19.1558 109.755 15.2048C97.861 2.2228 83.9202 -4.47143 67.9324 -4.87788C51.9691 -5.82581 34.0831 2.77439 14.2744 20.9227C5.50193 28.9598 -1.78738 37.1954 -7.59355 45.6296C-13.6583 53.7815 -17.7105 62.4256 -19.7503 71.5618C-21.7657 80.1566 -21.6393 89.3847 -19.3711 99.2462C-17.0785 108.566 -12.1027 118.542 -4.4435 129.175L-30.3364 152.897C-41.3812 139.137 -48.4938 125.409 -51.6741 111.711C-55.113 97.7311 -55.4563 84.2893 -52.704 71.3856C-49.9273 57.9404 -44.4673 45.1515 -36.3241 33.0189C-28.1564 20.3448 -18.1299 8.5632 -6.24463 -2.3258C4.79166 -12.437 16.284 -20.6301 28.2325 -26.905C40.2053 -33.7215 52.1854 -37.6894 64.1726 -38.8088C76.1842 -40.4697 88.1786 -38.7406 100.156 -33.6215C112.416 -28.7617 124.364 -19.9819 135.999 -7.28211L245.37 112.096C254.42 121.974 261.936 126.768 267.917 126.479C273.923 125.648 280.492 118.332 287.626 104.529L305.854 124.425C304.391 126.804 302.195 130.373 299.268 135.132C296.623 139.631 293.461 143.566 289.783 146.936C285.821 150.566 281.613 153.643 277.158 156.166C272.397 159.491 267.837 161.332 263.48 161.69C258.865 161.765 254.416 161.17 250.132 159.903C245.873 158.095 241.909 155.757 238.241 152.889C234.313 149.739 230.54 146.188 226.92 142.237C227.026 163.942 222.99 184.251 214.813 203.164C206.635 222.076 194.481 238.922 178.351 253.7C168.73 262.514 158.228 269.8 146.845 275.557C135.746 281.054 124.344 284.232 112.64 285.092C100.935 285.953 89.6118 284.388 78.6689 280.397C67.4674 276.125 56.954 268.627 47.1287 257.902C12.9985 220.65 18.4406 175.173 63.4549 121.474L94.4198 84.5392Z" fill="#FF4A00"/>
</svg>
