<svg width="288" height="288" viewBox="0 0 288 288" fill="none" xmlns="http://www.w3.org/2000/svg">
<mask id="mask0_324_214" style="mask-type:alpha" maskUnits="userSpaceOnUse" x="0" y="0" width="288" height="291">
<rect y="0.708984" width="288" height="289.761" fill="#D9D9D9"/>
</mask>
<g mask="url(#mask0_324_214)">
</g>
<g clip-path="url(#clip0_324_214)">
<path d="M519.63 126.787C485.596 50.5627 440.371 -11.6613 387.786 -54.6196C335.2 -97.5778 276.801 -120.006 217.529 -120.006C158.257 -120.006 99.8569 -97.5778 47.2714 -54.6196C-5.31408 -11.6613 -50.5375 50.5627 -84.5719 126.787L-88.1014 134.74H-0.646905L0.273629 133.053C28.1488 86.4883 61.7977 49.3806 99.1482 24.0155C136.499 -1.34953 176.76 -14.435 217.452 -14.435C258.144 -14.435 298.405 -1.34953 335.755 24.0155C373.106 49.3806 406.755 86.4883 434.63 133.053L435.55 134.74H523.005L519.63 126.787Z" fill="#FF0000"/>
<path d="M38.4766 228.968H-37.6239V811.945H38.4766V228.968Z" fill="#002D72"/>
<path d="M336.13 685.18C319.45 702.748 300.033 712.83 279.974 714.341C255.426 714.341 244.226 694.097 244.226 648.548V339.104H321.707V229.449H244.38V47.9766L169.966 110.637V229.208H105.68V339.104H169.966V668.31C169.966 757.962 203.72 819.176 254.198 820.863C277.843 822.648 301.291 813.335 321.554 794.112H322.321L340.579 681.806L336.13 685.18Z" fill="#002D72"/>
</g>
<defs>
<clipPath id="clip0_324_214">
<rect width="1074" height="964" fill="white" transform="translate(-408 -120)"/>
</clipPath>
</defs>
</svg>
