<svg width="288" height="288" viewBox="0 0 288 288" fill="none" xmlns="http://www.w3.org/2000/svg">
<mask id="mask0_327_232" style="mask-type:alpha" maskUnits="userSpaceOnUse" x="0" y="0" width="288" height="288">
<rect width="288" height="288" fill="#D9D9D9"/>
</mask>
<g mask="url(#mask0_327_232)">
<path fill-rule="evenodd" clip-rule="evenodd" d="M148.88 162.171H198.483V112.152H168.237C180.135 99.1577 195.722 92.6605 214.999 92.6605C236.696 92.6605 253.164 100.244 264.402 115.411C275.751 130.466 281.426 151.822 281.426 179.48C281.426 191.524 280.202 202.063 277.754 211.096C276.196 217.118 273.47 224.144 269.576 232.173L244.708 208.419L218.17 236.188L243.039 259.942C238.365 261.95 234.527 263.344 231.523 264.124C227.158 265.285 222.65 265.981 218 266.212V236.223H160.759C152.301 221.982 148.072 203.067 148.072 179.48C148.072 173.39 148.341 167.621 148.88 162.171ZM110.147 112.152H58.7449V50.9959H191.24C170.055 54.6731 151.66 63.4314 136.055 77.2706C125.125 86.9618 116.489 98.5889 110.147 112.152ZM210.974 49.0607V0H0V288H143.251C162.754 302.64 186.503 309.959 214.499 309.959C229.854 309.959 243.039 308.119 254.054 304.439C260.619 302.209 268.408 298.361 277.42 292.897L307.129 321L334 292.897L305.627 266.299C314.083 256.931 320.481 245.166 324.82 231.002C330.161 216.17 332.832 197.769 332.832 175.799C332.832 134.314 320.37 102.028 295.446 78.9434C273.86 58.9811 247.156 49 215.333 49C213.869 49 212.416 49.0202 210.974 49.0607ZM105.705 236.223H58.7449V162.171H97.6839C97.228 167.748 97 173.518 97 179.48C97 200.869 99.9016 219.783 105.705 236.223Z" fill="black"/>
</g>
</svg>
