<svg width="288" height="192" viewBox="0 0 288 192" fill="none" xmlns="http://www.w3.org/2000/svg">
<mask id="mask0_322_204" style="mask-type:alpha" maskUnits="userSpaceOnUse" x="0" y="0" width="288" height="192">
<rect width="288" height="192" fill="#052340"/>
</mask>
<g mask="url(#mask0_322_204)">
<path fill-rule="evenodd" clip-rule="evenodd" d="M-83.12 0.0800781V242H-60.272V123.392H82.864V242H105.712V-5.91992H82.864V103.904H-60.272V0.0800781H-83.12ZM202.976 345.432H144.848V249.336H205.664C216.416 249.336 226.16 250.008 234.896 251.352C243.632 252.472 251.136 254.712 257.408 258.072C263.68 261.432 268.496 266.248 271.856 272.52C275.216 278.568 276.896 286.632 276.896 296.712C276.896 307.24 275.328 315.752 272.192 322.248C269.28 328.52 264.8 333.448 258.752 337.032C252.704 340.392 244.976 342.632 235.568 343.752C226.384 344.872 215.52 345.432 202.976 345.432ZM202.64 229.848H144.848V142.488H197.6C210.144 142.488 220.672 143.272 229.184 144.84C237.92 146.184 244.976 148.536 250.352 151.896C255.728 155.032 259.648 159.288 262.112 164.664C264.576 169.816 265.808 176.2 265.808 183.816C265.808 191.208 264.688 197.816 262.448 203.64C260.432 209.24 256.96 214.056 252.032 218.088C247.104 221.896 240.608 224.808 232.544 226.824C224.48 228.84 214.512 229.848 202.64 229.848ZM122 123V364.92H220.784C232.208 364.92 242.736 363.8 252.368 361.56C262.224 359.096 270.624 355.176 277.568 349.8C284.512 344.424 289.888 337.368 293.696 328.632C297.728 319.896 299.744 309.256 299.744 296.712C299.744 280.584 295.6 267.144 287.312 256.392C279.248 245.64 266.816 239.032 250.016 236.568V235.896C254.944 235 259.648 233.432 264.128 231.192C268.832 228.728 272.976 225.48 276.56 221.448C280.144 217.192 283.056 212.04 285.296 205.992C287.536 199.72 288.656 192.328 288.656 183.816C288.656 174.856 287.2 166.68 284.288 159.288C281.376 151.672 276.672 145.176 270.176 139.8C263.904 134.424 255.728 130.28 245.648 127.368C235.568 124.456 223.472 123 209.36 123H122Z" fill="#F5B100"/>
</g>
</svg>
