<svg width="240" height="288" viewBox="0 0 240 288" fill="none" xmlns="http://www.w3.org/2000/svg">
<mask id="mask0_327_240" style="mask-type:alpha" maskUnits="userSpaceOnUse" x="0" y="0" width="240" height="288">
<rect width="240" height="288" fill="#D9D9D9"/>
</mask>
<g mask="url(#mask0_327_240)">
<path d="M-114.962 289.869H-172V-2.44718H-82.9653L-29.7035 227.4L23.1609 -2.44718H111.202V289.869H54.164V92.1491C54.164 86.464 54.2303 78.5314 54.3628 68.3513C54.4953 58.0389 54.5615 50.1063 54.5615 44.5535L-0.886428 289.869H-60.3091L-115.36 44.5535C-115.36 50.1063 -115.293 58.0389 -115.161 68.3513C-115.028 78.5314 -114.962 86.464 -114.962 92.1491V289.869Z" fill="black"/>
<path d="M374.729 268.054C352.868 288.018 324.912 298 290.861 298C248.729 298 215.606 284.515 191.492 257.544C167.379 230.441 155.322 193.29 155.322 146.091C155.322 95.0577 169.035 55.7252 196.461 28.0933C220.309 4.03111 250.65 -8 287.483 -8C336.77 -8 372.808 8.12962 395.596 40.3889C408.183 58.5016 414.94 76.6805 415.868 94.9255H354.656C350.681 80.9112 345.58 70.3344 339.353 63.1951C328.224 50.5029 311.729 44.1568 289.868 44.1568C267.609 44.1568 250.054 53.1471 237.202 71.1277C224.35 88.976 217.924 114.294 217.924 147.082C217.924 179.87 224.681 204.461 238.196 220.855C251.842 237.117 269.133 245.248 290.066 245.248C311.53 245.248 327.893 238.241 339.155 224.227C345.382 216.691 350.549 205.387 354.656 190.315H415.271C409.972 222.178 396.457 248.091 374.729 268.054Z" fill="black"/>
<path d="M588.372 289.869H462.174V-2.44718H588.372C606.524 -2.18276 621.628 -0.0674013 633.685 3.8989C654.221 10.6416 670.849 23.0032 683.568 40.9838C693.77 55.5269 700.726 71.2599 704.435 88.1828C708.145 105.106 710 121.235 710 136.572C710 175.441 702.183 208.362 686.549 235.332C665.35 271.69 632.625 289.869 588.372 289.869ZM633.883 72.1192C624.476 56.254 605.861 48.3215 578.038 48.3215H521.596V239.1H578.038C606.921 239.1 627.06 224.888 638.454 196.463C644.681 180.862 647.795 162.286 647.795 140.736C647.795 110.989 643.158 88.1167 633.883 72.1192Z" fill="black"/>
</g>
</svg>
