<svg width="288" height="288" viewBox="0 0 288 288" fill="none" xmlns="http://www.w3.org/2000/svg">
<path fill-rule="evenodd" clip-rule="evenodd" d="M247.149 -23V347.66C265.493 347.66 368.621 350.343 455.866 342.518C477.789 340.283 499.265 337.6 519.845 334.023C569.955 324.41 612.235 309.432 627 297.136V13.8872C588.746 -14.5048 427.903 -23 247.149 -23Z" fill="#00C56E"/>
<path fill-rule="evenodd" clip-rule="evenodd" d="M3.31487 -0.508789C-3.40233 -0.508789 -9 5.07796 -9 11.7821V308.773C-4.74577 315.478 19.4362 328.886 55.933 335.59L75.8607 338.495C114.597 343.635 176.843 348.104 247.149 348.104V119.718C167.886 17.8157 45.1854 -0.508789 3.31487 -0.508789Z" fill="#E621BB"/>
</svg>
